<mxfile host="app.diagrams.net" agent="Mozilla/5.0 (Macintosh; Intel Mac OS X 10_15_7) AppleWebKit/537.36 (KHTML, like Gecko) Chrome/135.0.0.0 Safari/537.36" version="26.3.0">
  <diagram name="Seite-1" id="NCJgYHRcMHRg2yj5u7Xb">
    <mxGraphModel dx="2893" dy="1184" grid="1" gridSize="10" guides="1" tooltips="1" connect="1" arrows="1" fold="1" page="1" pageScale="1" pageWidth="827" pageHeight="1169" math="0" shadow="0">
      <root>
        <mxCell id="0" />
        <mxCell id="1" parent="0" />
        <mxCell id="uiyj4AJaclQUMeadfKE2-1" value="&lt;b&gt;&lt;font style=&quot;font-size: 20px;&quot;&gt;carreras&lt;/font&gt;&lt;/b&gt;" style="rounded=0;whiteSpace=wrap;html=1;" vertex="1" parent="1">
          <mxGeometry x="350" y="280" width="120" height="60" as="geometry" />
        </mxCell>
        <mxCell id="uiyj4AJaclQUMeadfKE2-2" value="&lt;b&gt;&lt;font style=&quot;font-size: 20px;&quot;&gt;tipos_carreras&lt;/font&gt;&lt;/b&gt;" style="rounded=0;whiteSpace=wrap;html=1;" vertex="1" parent="1">
          <mxGeometry x="760" y="270" width="160" height="80" as="geometry" />
        </mxCell>
        <mxCell id="uiyj4AJaclQUMeadfKE2-3" value="&lt;b&gt;&lt;font style=&quot;font-size: 20px;&quot;&gt;paises&lt;/font&gt;&lt;/b&gt;" style="rounded=0;whiteSpace=wrap;html=1;" vertex="1" parent="1">
          <mxGeometry x="350" y="740" width="120" height="60" as="geometry" />
        </mxCell>
        <mxCell id="uiyj4AJaclQUMeadfKE2-4" value="&lt;font style=&quot;font-size: 16px;&quot;&gt;altitud&lt;/font&gt;" style="ellipse;whiteSpace=wrap;html=1;" vertex="1" parent="1">
          <mxGeometry x="-20" y="480" width="120" height="80" as="geometry" />
        </mxCell>
        <mxCell id="uiyj4AJaclQUMeadfKE2-5" value="&lt;font style=&quot;font-size: 16px;&quot;&gt;&lt;u&gt;&lt;b&gt;carrera_id&lt;/b&gt;&lt;/u&gt;&lt;/font&gt;" style="ellipse;whiteSpace=wrap;html=1;" vertex="1" parent="1">
          <mxGeometry x="440" y="40" width="120" height="80" as="geometry" />
        </mxCell>
        <mxCell id="uiyj4AJaclQUMeadfKE2-6" value="&lt;font style=&quot;font-size: 16px;&quot;&gt;tiempo&lt;/font&gt;" style="ellipse;whiteSpace=wrap;html=1;" vertex="1" parent="1">
          <mxGeometry x="-20" y="280" width="120" height="80" as="geometry" />
        </mxCell>
        <mxCell id="uiyj4AJaclQUMeadfKE2-7" value="fecha" style="ellipse;whiteSpace=wrap;html=1;fontSize=16;" vertex="1" parent="1">
          <mxGeometry x="-20" y="180" width="120" height="80" as="geometry" />
        </mxCell>
        <mxCell id="uiyj4AJaclQUMeadfKE2-8" value="&lt;u&gt;&lt;b&gt;pais_id&lt;/b&gt;&lt;/u&gt;" style="ellipse;whiteSpace=wrap;html=1;fontSize=16;" vertex="1" parent="1">
          <mxGeometry x="260" y="950" width="120" height="80" as="geometry" />
        </mxCell>
        <mxCell id="uiyj4AJaclQUMeadfKE2-9" value="&lt;font style=&quot;font-size: 16px;&quot;&gt;nombre&lt;/font&gt;" style="ellipse;whiteSpace=wrap;html=1;" vertex="1" parent="1">
          <mxGeometry x="440" y="950" width="120" height="80" as="geometry" />
        </mxCell>
        <mxCell id="uiyj4AJaclQUMeadfKE2-10" value="&lt;font style=&quot;font-size: 16px;&quot;&gt;nombre&lt;/font&gt;" style="ellipse;whiteSpace=wrap;html=1;" vertex="1" parent="1">
          <mxGeometry x="260" y="40" width="120" height="80" as="geometry" />
        </mxCell>
        <mxCell id="uiyj4AJaclQUMeadfKE2-11" value="&lt;font style=&quot;font-size: 16px;&quot;&gt;&lt;u&gt;&lt;i style=&quot;&quot;&gt;tipo_carrera&lt;/i&gt;&lt;/u&gt;&lt;/font&gt;" style="ellipse;whiteSpace=wrap;html=1;" vertex="1" parent="1">
          <mxGeometry x="100" y="90" width="120" height="80" as="geometry" />
        </mxCell>
        <mxCell id="uiyj4AJaclQUMeadfKE2-12" value="&lt;font style=&quot;font-size: 16px;&quot;&gt;mejor_tiempo&lt;/font&gt;" style="ellipse;whiteSpace=wrap;html=1;" vertex="1" parent="1">
          <mxGeometry x="-20" y="380" width="120" height="80" as="geometry" />
        </mxCell>
        <mxCell id="uiyj4AJaclQUMeadfKE2-13" value="" style="endArrow=classic;html=1;rounded=0;" edge="1" parent="1">
          <mxGeometry width="50" height="50" relative="1" as="geometry">
            <mxPoint x="160" y="730" as="sourcePoint" />
            <mxPoint x="100" y="729.5" as="targetPoint" />
          </mxGeometry>
        </mxCell>
        <mxCell id="uiyj4AJaclQUMeadfKE2-15" value="" style="endArrow=classic;html=1;rounded=0;exitX=1;exitY=0.5;exitDx=0;exitDy=0;" edge="1" parent="1" target="uiyj4AJaclQUMeadfKE2-16">
          <mxGeometry width="50" height="50" relative="1" as="geometry">
            <mxPoint x="470" y="309.5" as="sourcePoint" />
            <mxPoint x="610" y="310" as="targetPoint" />
          </mxGeometry>
        </mxCell>
        <mxCell id="uiyj4AJaclQUMeadfKE2-16" value="&lt;b&gt;&lt;font style=&quot;font-size: 22px; color: light-dark(rgb(0, 0, 0), rgb(255, 255, 255));&quot;&gt;pertenece&lt;/font&gt;&lt;/b&gt;" style="rhombus;whiteSpace=wrap;html=1;" vertex="1" parent="1">
          <mxGeometry x="550" y="240" width="140" height="140" as="geometry" />
        </mxCell>
        <mxCell id="uiyj4AJaclQUMeadfKE2-17" value="" style="endArrow=classic;html=1;rounded=0;" edge="1" parent="1">
          <mxGeometry width="50" height="50" relative="1" as="geometry">
            <mxPoint x="319.5" y="200" as="sourcePoint" />
            <mxPoint x="319.5" y="120" as="targetPoint" />
          </mxGeometry>
        </mxCell>
        <mxCell id="uiyj4AJaclQUMeadfKE2-18" value="" style="endArrow=classic;html=1;rounded=0;" edge="1" parent="1">
          <mxGeometry width="50" height="50" relative="1" as="geometry">
            <mxPoint x="160" y="730" as="sourcePoint" />
            <mxPoint x="160" y="170" as="targetPoint" />
          </mxGeometry>
        </mxCell>
        <mxCell id="uiyj4AJaclQUMeadfKE2-19" value="" style="endArrow=none;html=1;rounded=0;entryX=0;entryY=0.5;entryDx=0;entryDy=0;" edge="1" parent="1" target="uiyj4AJaclQUMeadfKE2-2">
          <mxGeometry width="50" height="50" relative="1" as="geometry">
            <mxPoint x="690" y="310" as="sourcePoint" />
            <mxPoint x="720" y="260" as="targetPoint" />
            <Array as="points">
              <mxPoint x="760" y="310" />
            </Array>
          </mxGeometry>
        </mxCell>
        <mxCell id="uiyj4AJaclQUMeadfKE2-20" value="1" style="text;strokeColor=none;align=center;fillColor=none;html=1;verticalAlign=middle;whiteSpace=wrap;rounded=0;fontSize=16;" vertex="1" parent="1">
          <mxGeometry x="480" y="280" width="60" height="30" as="geometry" />
        </mxCell>
        <mxCell id="uiyj4AJaclQUMeadfKE2-21" value="1" style="text;strokeColor=none;align=center;fillColor=none;html=1;verticalAlign=middle;whiteSpace=wrap;rounded=0;fontSize=16;" vertex="1" parent="1">
          <mxGeometry x="690" y="280" width="60" height="30" as="geometry" />
        </mxCell>
        <mxCell id="uiyj4AJaclQUMeadfKE2-23" value="&lt;b&gt;&lt;font style=&quot;font-size: 22px; color: light-dark(rgb(0, 0, 0), rgb(255, 255, 255));&quot;&gt;se corre&lt;/font&gt;&lt;/b&gt;" style="rhombus;whiteSpace=wrap;html=1;" vertex="1" parent="1">
          <mxGeometry x="350" y="480" width="120" height="120" as="geometry" />
        </mxCell>
        <mxCell id="uiyj4AJaclQUMeadfKE2-24" value="" style="endArrow=classic;html=1;rounded=0;exitX=0.5;exitY=1;exitDx=0;exitDy=0;" edge="1" parent="1" source="uiyj4AJaclQUMeadfKE2-1" target="uiyj4AJaclQUMeadfKE2-23">
          <mxGeometry width="50" height="50" relative="1" as="geometry">
            <mxPoint x="414" y="340" as="sourcePoint" />
            <mxPoint x="224" y="340" as="targetPoint" />
          </mxGeometry>
        </mxCell>
        <mxCell id="uiyj4AJaclQUMeadfKE2-25" value="" style="endArrow=classic;html=1;rounded=0;exitX=0.5;exitY=1;exitDx=0;exitDy=0;entryX=0.5;entryY=1;entryDx=0;entryDy=0;" edge="1" parent="1" target="uiyj4AJaclQUMeadfKE2-23">
          <mxGeometry width="50" height="50" relative="1" as="geometry">
            <mxPoint x="409.5" y="740" as="sourcePoint" />
            <mxPoint x="409.5" y="880" as="targetPoint" />
          </mxGeometry>
        </mxCell>
        <mxCell id="uiyj4AJaclQUMeadfKE2-26" value="" style="endArrow=none;html=1;rounded=0;" edge="1" parent="1">
          <mxGeometry width="50" height="50" relative="1" as="geometry">
            <mxPoint x="410" y="880" as="sourcePoint" />
            <mxPoint x="409.5" y="800" as="targetPoint" />
          </mxGeometry>
        </mxCell>
        <mxCell id="uiyj4AJaclQUMeadfKE2-27" value="" style="endArrow=none;html=1;rounded=0;" edge="1" parent="1">
          <mxGeometry width="50" height="50" relative="1" as="geometry">
            <mxPoint x="500" y="880" as="sourcePoint" />
            <mxPoint x="409.5" y="880" as="targetPoint" />
          </mxGeometry>
        </mxCell>
        <mxCell id="uiyj4AJaclQUMeadfKE2-28" value="" style="endArrow=none;html=1;rounded=0;" edge="1" parent="1">
          <mxGeometry width="50" height="50" relative="1" as="geometry">
            <mxPoint x="410.5" y="880" as="sourcePoint" />
            <mxPoint x="320" y="880" as="targetPoint" />
          </mxGeometry>
        </mxCell>
        <mxCell id="uiyj4AJaclQUMeadfKE2-29" value="" style="endArrow=classic;html=1;rounded=0;" edge="1" parent="1">
          <mxGeometry width="50" height="50" relative="1" as="geometry">
            <mxPoint x="320" y="880" as="sourcePoint" />
            <mxPoint x="320" y="950" as="targetPoint" />
          </mxGeometry>
        </mxCell>
        <mxCell id="uiyj4AJaclQUMeadfKE2-30" value="" style="endArrow=classic;html=1;rounded=0;" edge="1" parent="1">
          <mxGeometry width="50" height="50" relative="1" as="geometry">
            <mxPoint x="499.5" y="880" as="sourcePoint" />
            <mxPoint x="499.5" y="950" as="targetPoint" />
          </mxGeometry>
        </mxCell>
        <mxCell id="uiyj4AJaclQUMeadfKE2-31" value="" style="endArrow=none;html=1;rounded=0;" edge="1" parent="1">
          <mxGeometry width="50" height="50" relative="1" as="geometry">
            <mxPoint x="410" y="280" as="sourcePoint" />
            <mxPoint x="409.5" y="200" as="targetPoint" />
          </mxGeometry>
        </mxCell>
        <mxCell id="uiyj4AJaclQUMeadfKE2-32" value="" style="endArrow=none;html=1;rounded=0;" edge="1" parent="1">
          <mxGeometry width="50" height="50" relative="1" as="geometry">
            <mxPoint x="500.5" y="200" as="sourcePoint" />
            <mxPoint x="410" y="200" as="targetPoint" />
          </mxGeometry>
        </mxCell>
        <mxCell id="uiyj4AJaclQUMeadfKE2-33" value="" style="endArrow=none;html=1;rounded=0;" edge="1" parent="1">
          <mxGeometry width="50" height="50" relative="1" as="geometry">
            <mxPoint x="410.5" y="200" as="sourcePoint" />
            <mxPoint x="320" y="200" as="targetPoint" />
          </mxGeometry>
        </mxCell>
        <mxCell id="uiyj4AJaclQUMeadfKE2-34" value="" style="endArrow=classic;html=1;rounded=0;" edge="1" parent="1">
          <mxGeometry width="50" height="50" relative="1" as="geometry">
            <mxPoint x="499.5" y="200" as="sourcePoint" />
            <mxPoint x="499.5" y="120" as="targetPoint" />
          </mxGeometry>
        </mxCell>
        <mxCell id="uiyj4AJaclQUMeadfKE2-35" value="" style="endArrow=none;html=1;rounded=0;" edge="1" parent="1">
          <mxGeometry width="50" height="50" relative="1" as="geometry">
            <mxPoint x="350" y="309.5" as="sourcePoint" />
            <mxPoint x="160" y="310" as="targetPoint" />
          </mxGeometry>
        </mxCell>
        <mxCell id="uiyj4AJaclQUMeadfKE2-36" value="&lt;font style=&quot;font-size: 16px;&quot;&gt;lugar&lt;/font&gt;" style="ellipse;whiteSpace=wrap;html=1;" vertex="1" parent="1">
          <mxGeometry x="-20" y="584.5" width="120" height="80" as="geometry" />
        </mxCell>
        <mxCell id="uiyj4AJaclQUMeadfKE2-37" value="&lt;font style=&quot;font-size: 16px;&quot;&gt;&lt;i&gt;&lt;u&gt;pais&lt;/u&gt;&lt;/i&gt;&lt;/font&gt;" style="ellipse;whiteSpace=wrap;html=1;" vertex="1" parent="1">
          <mxGeometry x="-20" y="690" width="120" height="80" as="geometry" />
        </mxCell>
        <mxCell id="uiyj4AJaclQUMeadfKE2-38" value="" style="endArrow=classic;html=1;rounded=0;" edge="1" parent="1">
          <mxGeometry width="50" height="50" relative="1" as="geometry">
            <mxPoint x="160" y="624.5" as="sourcePoint" />
            <mxPoint x="100" y="624" as="targetPoint" />
          </mxGeometry>
        </mxCell>
        <mxCell id="uiyj4AJaclQUMeadfKE2-39" value="" style="endArrow=classic;html=1;rounded=0;" edge="1" parent="1">
          <mxGeometry width="50" height="50" relative="1" as="geometry">
            <mxPoint x="160" y="520" as="sourcePoint" />
            <mxPoint x="100" y="519.5" as="targetPoint" />
          </mxGeometry>
        </mxCell>
        <mxCell id="uiyj4AJaclQUMeadfKE2-40" value="" style="endArrow=classic;html=1;rounded=0;" edge="1" parent="1">
          <mxGeometry width="50" height="50" relative="1" as="geometry">
            <mxPoint x="160" y="420" as="sourcePoint" />
            <mxPoint x="100" y="419.5" as="targetPoint" />
          </mxGeometry>
        </mxCell>
        <mxCell id="uiyj4AJaclQUMeadfKE2-41" value="" style="endArrow=classic;html=1;rounded=0;exitX=-0.008;exitY=0.65;exitDx=0;exitDy=0;exitPerimeter=0;" edge="1" parent="1" source="uiyj4AJaclQUMeadfKE2-1">
          <mxGeometry width="50" height="50" relative="1" as="geometry">
            <mxPoint x="160" y="320" as="sourcePoint" />
            <mxPoint x="100" y="319.5" as="targetPoint" />
          </mxGeometry>
        </mxCell>
        <mxCell id="uiyj4AJaclQUMeadfKE2-42" value="" style="endArrow=classic;html=1;rounded=0;" edge="1" parent="1">
          <mxGeometry width="50" height="50" relative="1" as="geometry">
            <mxPoint x="160" y="220.5" as="sourcePoint" />
            <mxPoint x="100" y="220" as="targetPoint" />
          </mxGeometry>
        </mxCell>
        <mxCell id="uiyj4AJaclQUMeadfKE2-44" value="1" style="text;strokeColor=none;align=center;fillColor=none;html=1;verticalAlign=middle;whiteSpace=wrap;rounded=0;fontSize=16;" vertex="1" parent="1">
          <mxGeometry x="400" y="440" width="60" height="30" as="geometry" />
        </mxCell>
        <mxCell id="uiyj4AJaclQUMeadfKE2-45" value="1" style="text;strokeColor=none;align=center;fillColor=none;html=1;verticalAlign=middle;whiteSpace=wrap;rounded=0;fontSize=16;" vertex="1" parent="1">
          <mxGeometry x="400" y="620" width="60" height="30" as="geometry" />
        </mxCell>
        <mxCell id="uiyj4AJaclQUMeadfKE2-46" value="" style="endArrow=classic;html=1;rounded=0;exitX=-0.008;exitY=0.65;exitDx=0;exitDy=0;exitPerimeter=0;" edge="1" parent="1">
          <mxGeometry width="50" height="50" relative="1" as="geometry">
            <mxPoint x="839.5" y="350" as="sourcePoint" />
            <mxPoint x="840.5" y="430" as="targetPoint" />
          </mxGeometry>
        </mxCell>
        <mxCell id="uiyj4AJaclQUMeadfKE2-49" value="" style="endArrow=classic;html=1;rounded=0;exitX=-0.008;exitY=0.65;exitDx=0;exitDy=0;exitPerimeter=0;" edge="1" parent="1">
          <mxGeometry width="50" height="50" relative="1" as="geometry">
            <mxPoint x="920" y="310" as="sourcePoint" />
            <mxPoint x="990" y="310" as="targetPoint" />
          </mxGeometry>
        </mxCell>
        <mxCell id="uiyj4AJaclQUMeadfKE2-50" value="" style="endArrow=classic;html=1;rounded=0;exitX=-0.008;exitY=0.65;exitDx=0;exitDy=0;exitPerimeter=0;" edge="1" parent="1">
          <mxGeometry width="50" height="50" relative="1" as="geometry">
            <mxPoint x="839.5" y="270" as="sourcePoint" />
            <mxPoint x="839.5" y="200" as="targetPoint" />
          </mxGeometry>
        </mxCell>
        <mxCell id="uiyj4AJaclQUMeadfKE2-51" value="&lt;font style=&quot;font-size: 16px;&quot;&gt;distancia&lt;/font&gt;" style="ellipse;whiteSpace=wrap;html=1;" vertex="1" parent="1">
          <mxGeometry x="780" y="430" width="120" height="80" as="geometry" />
        </mxCell>
        <mxCell id="uiyj4AJaclQUMeadfKE2-52" value="&lt;font style=&quot;font-size: 16px;&quot;&gt;descripcion&lt;/font&gt;" style="ellipse;whiteSpace=wrap;html=1;" vertex="1" parent="1">
          <mxGeometry x="990" y="270" width="120" height="80" as="geometry" />
        </mxCell>
        <mxCell id="uiyj4AJaclQUMeadfKE2-53" value="&lt;font style=&quot;font-size: 16px;&quot;&gt;&lt;u&gt;&lt;b&gt;tipo_carrera_id&lt;/b&gt;&lt;/u&gt;&lt;/font&gt;" style="ellipse;whiteSpace=wrap;html=1;" vertex="1" parent="1">
          <mxGeometry x="780" y="120" width="120" height="80" as="geometry" />
        </mxCell>
      </root>
    </mxGraphModel>
  </diagram>
</mxfile>
